<!-- Generator: Adobe Illustrator 23.0.4, SVG Export Plug-In  -->
<svg version="1.1" xmlns="http://www.w3.org/2000/svg" xmlns:xlink="http://www.w3.org/1999/xlink" x="0px" y="0px" width="37.76px"
	 height="36.95px" viewBox="0 0 37.76 36.95" style="enable-background:new 0 0 37.76 36.95;" xml:space="preserve">
<style type="text/css">
	.st0{fill:#FFFFFF;}
</style>
<defs>
</defs>
<circle class="st0" cx="6.621" cy="6.619" r="6.619"/>
<circle class="st0" cx="31.139" cy="6.619" r="6.619"/>
<circle class="st0" cx="6.62" cy="30.33" r="6.62"/>
<circle class="st0" cx="31.14" cy="30.33" r="6.62"/>
<g>
	<g>
		<rect x="13.239" y="6.027" class="st0" width="7.858" height="1.186"/>
	</g>
	<g>
		<g>
			<polygon class="st0" points="18.736,8.63 20.748,6.62 18.736,4.61 20.443,4.61 22.453,6.62 20.443,8.63 			"/>
		</g>
	</g>
</g>
<g>
	<g>
		<rect x="13.239" y="29.738" class="st0" width="7.858" height="1.186"/>
	</g>
	<g>
		<g>
			<polygon class="st0" points="18.736,32.341 20.748,30.332 18.737,28.321 20.443,28.322 22.453,30.332 20.443,32.341 			"/>
		</g>
	</g>
</g>
<g>
	<g>
		
			<rect x="11.943" y="17.555" transform="matrix(0.7643 -0.6449 0.6449 0.7643 -6.9043 17.408)" class="st0" width="16.835" height="1.186"/>
	</g>
	<g>
		<g>
			<polygon class="st0" points="14.436,20.519 14.197,23.352 17.03,23.59 15.726,24.691 12.894,24.453 13.133,21.621 			"/>
		</g>
	</g>
</g>
</svg>