<!-- Generator: Adobe Illustrator 23.0.4, SVG Export Plug-In  -->
<svg version="1.1" xmlns="http://www.w3.org/2000/svg" xmlns:xlink="http://www.w3.org/1999/xlink" x="0px" y="0px" width="57.95px"
	 height="60.169px" viewBox="0 0 57.95 60.169" style="enable-background:new 0 0 57.95 60.169;" xml:space="preserve">
<style type="text/css">
	.st0{fill:#FFFFFF;}
</style>
<defs>
</defs>
<path class="st0" d="M53.052,45.097c3.093-4.609,4.898-10.154,4.898-16.122C57.95,12.973,44.977,0,28.975,0S0,12.973,0,28.975
	S12.973,57.95,28.975,57.95c4.009,0,7.828-0.815,11.3-2.287l7.359,1.972l9.456,2.534l-2.534-9.456L53.052,45.097z M41.234,10.5
	c3.656,0,6.619,2.963,6.619,6.619c0,3.656-2.963,6.619-6.619,6.619s-6.619-2.963-6.619-6.619C34.615,13.463,37.578,10.5,41.234,10.5
	z M27.125,34.09l-1.304,1.101l-2.832-0.238l0.239-2.832l1.303-1.102l-0.168,1.994l12.144-10.247l0.765,0.906L25.125,33.922
	L27.125,34.09z M16.716,10.5c3.649,0,6.607,2.953,6.618,6.6v-0.573h6.915l-1.418-1.417h1.707l2.01,2.01l-2.01,2.01h-1.707
	l1.418-1.417h-6.915v-0.575c-0.011,3.647-2.969,6.6-6.618,6.6c-3.656,0-6.619-2.963-6.619-6.619
	C10.097,13.463,13.06,10.5,16.716,10.5z M30.538,42.841h-1.707l1.419-1.417h-6.916v-0.575c-0.011,3.647-2.969,6.601-6.619,6.601
	c-3.656,0-6.62-2.964-6.62-6.62c0-3.656,2.964-6.62,6.62-6.62c3.65,0,6.608,2.954,6.619,6.601v-0.573h6.915l-1.417-1.417
	l1.706,0.001l2.01,2.01L30.538,42.841z M41.235,47.45c-3.656,0-6.62-2.964-6.62-6.62c0-3.656,2.964-6.62,6.62-6.62
	s6.62,2.964,6.62,6.62C47.855,44.486,44.891,47.45,41.235,47.45z"/>
</svg>